<svg width="93" height="15" viewBox="0 0 93 15" fill="none" xmlns="http://www.w3.org/2000/svg">
<path d="M0.88 14L5.8 1.12H8.24L13.12 14H10.88L9.6 10.68H4.42L3.14 14H0.88ZM4.76 9H9.24L7 3.1L4.76 9ZM18.2855 14.2C17.4321 14.2 16.6788 14.0533 16.0255 13.76C15.3721 13.4667 14.8655 12.98 14.5055 12.3C14.1455 11.62 13.9655 10.7067 13.9655 9.56C13.9655 8.42667 14.1588 7.47333 14.5455 6.7C14.9321 5.91333 15.4655 5.32 16.1455 4.92C16.8388 4.52 17.6188 4.32 18.4855 4.32C19.0588 4.32 19.5655 4.38667 20.0055 4.52C20.4588 4.65333 20.8921 4.86 21.3055 5.14V0.52H23.4855V14H21.6255L21.4855 13.06C21.0588 13.4467 20.5921 13.7333 20.0855 13.92C19.5788 14.1067 18.9788 14.2 18.2855 14.2ZM18.8655 12.56C19.8388 12.56 20.6521 12.2267 21.3055 11.56V6.82C20.6788 6.26 19.8921 5.98 18.9455 5.98C18.0255 5.98 17.3321 6.28667 16.8655 6.9C16.3988 7.51333 16.1655 8.40667 16.1655 9.58C16.1655 10.7133 16.3788 11.4933 16.8055 11.92C17.2455 12.3467 17.9321 12.56 18.8655 12.56ZM29.7308 14.2C28.8774 14.2 28.1241 14.0533 27.4708 13.76C26.8174 13.4667 26.3108 12.98 25.9508 12.3C25.5908 11.62 25.4108 10.7067 25.4108 9.56C25.4108 8.42667 25.6041 7.47333 25.9908 6.7C26.3774 5.91333 26.9108 5.32 27.5908 4.92C28.2841 4.52 29.0641 4.32 29.9308 4.32C30.5041 4.32 31.0108 4.38667 31.4508 4.52C31.9041 4.65333 32.3374 4.86 32.7508 5.14V0.52H34.9308V14H33.0708L32.9308 13.06C32.5041 13.4467 32.0374 13.7333 31.5308 13.92C31.0241 14.1067 30.4241 14.2 29.7308 14.2ZM30.3108 12.56C31.2841 12.56 32.0974 12.2267 32.7508 11.56V6.82C32.1241 6.26 31.3374 5.98 30.3908 5.98C29.4708 5.98 28.7774 6.28667 28.3108 6.9C27.8441 7.51333 27.6108 8.40667 27.6108 9.58C27.6108 10.7133 27.8241 11.4933 28.2508 11.92C28.6908 12.3467 29.3774 12.56 30.3108 12.56ZM42.0608 14V1.12H44.3008L48.3808 9.46L52.4408 1.12H54.6808V14H52.5208V4.66L49.0408 11.78H47.7208L44.2208 4.66V14H42.0608ZM61.7375 14.2C60.0308 14.2 58.7775 13.7733 57.9775 12.92C57.1908 12.0667 56.7975 10.8467 56.7975 9.26C56.7975 7.67333 57.1975 6.45333 57.9975 5.6C58.7975 4.74667 60.0442 4.32 61.7375 4.32C63.4442 4.32 64.6975 4.74667 65.4975 5.6C66.2975 6.45333 66.6975 7.67333 66.6975 9.26C66.6975 10.8467 66.2975 12.0667 65.4975 12.92C64.7108 13.7733 63.4575 14.2 61.7375 14.2ZM61.7375 12.36C62.7375 12.36 63.4442 12.12 63.8575 11.64C64.2842 11.1467 64.4975 10.3533 64.4975 9.26C64.4975 8.16667 64.2842 7.38 63.8575 6.9C63.4442 6.42 62.7375 6.18 61.7375 6.18C60.7508 6.18 60.0442 6.42 59.6175 6.9C59.2042 7.38 58.9975 8.16667 58.9975 9.26C58.9975 10.3533 59.2042 11.1467 59.6175 11.64C60.0442 12.12 60.7508 12.36 61.7375 12.36ZM71.0648 14L67.3248 4.52H69.5848L72.2448 11.88L74.9048 4.52H77.1448L73.4248 14H71.0648ZM79.3842 2.54V0.739999H81.7642V2.54H79.3842ZM79.5642 14V6.18H78.1242L78.3242 4.52H81.7442V14H79.5642ZM89.0873 14.2C87.434 14.2 86.154 13.7933 85.2473 12.98C84.3407 12.1667 83.8873 10.92 83.8873 9.24C83.8873 7.72 84.274 6.52 85.0473 5.64C85.8207 4.76 86.994 4.32 88.5673 4.32C90.0073 4.32 91.0873 4.7 91.8073 5.46C92.5407 6.20667 92.9073 7.17333 92.9073 8.36V10.12H85.9673C86.074 11.04 86.4073 11.6733 86.9673 12.02C87.5273 12.3667 88.3807 12.54 89.5273 12.54C90.0073 12.54 90.5007 12.4933 91.0073 12.4C91.514 12.3067 91.954 12.1867 92.3273 12.04V13.64C91.9007 13.8267 91.4073 13.9667 90.8473 14.06C90.3007 14.1533 89.714 14.2 89.0873 14.2ZM85.9673 8.7H90.9873V8.04C90.9873 7.38667 90.8073 6.88 90.4473 6.52C90.0873 6.14667 89.4807 5.96 88.6273 5.96C87.614 5.96 86.914 6.18 86.5273 6.62C86.154 7.06 85.9673 7.75333 85.9673 8.7Z" fill="#F3F3F3"/>
</svg>
