<svg width="72" height="72" viewBox="0 0 72 72" fill="none" xmlns="http://www.w3.org/2000/svg">
<path d="M54.003 60H60V66H36C19.431 66 6 52.569 6 36C6 19.431 19.431 6 36 6C52.569 6 66 19.431 66 36C66.0038 40.6577 64.9215 45.2522 62.8389 49.4184C60.7563 53.5845 57.7309 57.2077 54.003 60ZM36 30C37.5913 30 39.1174 29.3679 40.2426 28.2426C41.3679 27.1174 42 25.5913 42 24C42 22.4087 41.3679 20.8826 40.2426 19.7574C39.1174 18.6321 37.5913 18 36 18C34.4087 18 32.8826 18.6321 31.7574 19.7574C30.6321 20.8826 30 22.4087 30 24C30 25.5913 30.6321 27.1174 31.7574 28.2426C32.8826 29.3679 34.4087 30 36 30ZM24 42C25.5913 42 27.1174 41.3679 28.2426 40.2426C29.3679 39.1174 30 37.5913 30 36C30 34.4087 29.3679 32.8826 28.2426 31.7574C27.1174 30.6321 25.5913 30 24 30C22.4087 30 20.8826 30.6321 19.7574 31.7574C18.6321 32.8826 18 34.4087 18 36C18 37.5913 18.6321 39.1174 19.7574 40.2426C20.8826 41.3679 22.4087 42 24 42ZM48 42C49.5913 42 51.1174 41.3679 52.2426 40.2426C53.3679 39.1174 54 37.5913 54 36C54 34.4087 53.3679 32.8826 52.2426 31.7574C51.1174 30.6321 49.5913 30 48 30C46.4087 30 44.8826 30.6321 43.7574 31.7574C42.6321 32.8826 42 34.4087 42 36C42 37.5913 42.6321 39.1174 43.7574 40.2426C44.8826 41.3679 46.4087 42 48 42ZM36 54C37.5913 54 39.1174 53.3679 40.2426 52.2426C41.3679 51.1174 42 49.5913 42 48C42 46.4087 41.3679 44.8826 40.2426 43.7574C39.1174 42.6321 37.5913 42 36 42C34.4087 42 32.8826 42.6321 31.7574 43.7574C30.6321 44.8826 30 46.4087 30 48C30 49.5913 30.6321 51.1174 31.7574 52.2426C32.8826 53.3679 34.4087 54 36 54Z" fill="#F85146"/>
</svg>
