<svg width="128" height="32" viewBox="0 0 128 32" fill="none" xmlns="http://www.w3.org/2000/svg">
<path d="M15.5977 11.7627H3V10.3564H15.5977V11.7627ZM13.0781 16.9072C13.0781 15.0322 12.1914 14.0947 10.418 14.0947C9.10547 14.0947 8.00781 14.7822 7.125 16.1572C6.34375 17.376 5.95312 18.6729 5.95312 20.0479V23.458L4.03125 22.4502V13.6377H6.04688V15.0322L7.08984 14.2471C8.01172 13.5518 8.98438 13.2041 10.0078 13.2041C11.3984 13.2041 12.5508 13.7432 13.4648 14.8213C14.3242 15.8369 14.7539 17.0518 14.7539 18.4658C14.7539 20.2393 14.0039 21.9424 12.5039 23.5752L10.2422 22.1572C10.9453 21.4619 11.543 20.8213 12.0352 20.2354C12.7305 19.4072 13.0781 18.2979 13.0781 16.9072Z" fill="white"/>
<path d="M27.3511 11.7627H19.5464V13.6377C19.5777 13.6377 19.6089 13.6533 19.6402 13.6846C19.6714 13.7158 19.6987 13.7314 19.7222 13.7314C19.6597 13.7314 19.6245 13.7275 19.6167 13.7197C19.6167 13.6807 20.1987 13.5557 21.3628 13.3447C21.7925 13.2666 22.2183 13.2275 22.6402 13.2275C24.398 13.2275 25.5269 13.7197 26.0269 14.7041C26.3628 15.3604 26.5308 16.6846 26.5308 18.6768V23.1885C26.3667 23.126 25.7456 22.8721 24.6675 22.4268C24.6675 22.1768 24.6167 22.0166 24.5152 21.9463C24.1011 22.1885 23.7612 22.3721 23.4956 22.4971C22.6519 22.8955 21.6714 23.0947 20.5542 23.0947C19.0152 23.0947 17.8277 22.6104 16.9917 21.6416C16.5855 21.1729 16.3823 20.6494 16.3823 20.0713C16.3823 19.4229 16.7027 18.7783 17.3433 18.1377C18.5855 16.8955 20.1284 16.2744 21.9722 16.2744C23.0894 16.2744 23.9878 16.5322 24.6675 17.0479V15.9697C24.3237 15.5322 23.9878 15.2393 23.6597 15.0908C23.3394 14.9424 22.898 14.876 22.3355 14.8916C21.0777 14.915 19.9253 15.1455 18.8784 15.583C18.4097 15.7783 17.9527 15.9541 17.5073 16.1104V15.2432C17.6089 15.1572 17.7573 15.0283 17.9527 14.8564C17.9839 14.8174 18.0034 14.7939 18.0112 14.7861V11.7627H15.6089V10.3564H27.3511V11.7627ZM24.6675 19.1807C24.6675 18.8369 24.2573 18.5283 23.437 18.2549C22.7573 18.0283 22.1909 17.915 21.7378 17.915C20.0894 17.915 18.7691 18.5088 17.7769 19.6963C17.3784 20.1729 17.1792 20.5635 17.1792 20.8682C17.3433 21.4385 17.9878 21.7236 19.1128 21.7236C20.5659 21.7236 21.8941 21.3604 23.0972 20.6338C24.1441 20.001 24.6675 19.5166 24.6675 19.1807Z" fill="white"/>
<path d="M42.3389 10.3564L42.3155 11.7627H41.1202V14.001C40.9795 14.2822 40.6514 14.876 40.1358 15.7822L35.9756 23.0947C35.2803 23.0947 34.3702 22.5439 33.2452 21.4424C32.0108 20.2393 31.3936 18.9033 31.3936 17.4346C31.3936 16.6846 31.6358 15.9854 32.1202 15.3369C32.3389 15.04 32.4483 14.8174 32.4483 14.6689C32.4483 14.3955 32.2178 14.2588 31.7569 14.2588C31.4131 14.2588 31.0811 14.3994 30.7608 14.6807C30.6436 14.7822 30.3897 15.0596 29.9991 15.5127L28.4873 14.1416C29.003 13.7041 29.5069 13.4346 29.9991 13.333C30.2412 13.2783 30.5537 13.251 30.9366 13.251C33.0537 13.2275 34.1123 14.3564 34.1123 16.6377C34.1123 16.9424 34.0772 17.3994 34.0069 18.0088C33.9444 18.6182 33.9131 19.0752 33.9131 19.3799C33.9131 20.6143 34.1319 21.2861 34.5694 21.3955C34.8116 21.3955 35.0967 21.0986 35.4248 20.5049L38.9991 14.0479V11.7627H27.6084V10.3564H42.3389Z" fill="white"/>
<path d="M55.3931 24.9697C55.3931 26.4229 54.69 27.1494 53.2837 27.1494C52.6587 27.1494 51.7525 26.8525 50.565 26.2588C49.2525 25.6025 48.1509 25.2744 47.2603 25.2744C45.3462 25.2744 43.5416 26.0283 41.8462 27.5361C41.0337 28.2627 40.397 29.1182 39.9361 30.1025C39.9048 29.9775 39.8892 29.7783 39.8892 29.5049C39.8892 28.5674 40.1705 27.6338 40.733 26.7041C41.2486 25.8447 41.9166 25.126 42.7369 24.5479C43.6587 23.8994 44.7095 23.5752 45.8892 23.5752C46.7017 23.5752 47.4087 23.7119 48.0103 23.9854C48.3306 24.1338 48.9478 24.5166 49.8619 25.1338C50.6431 25.665 51.2408 25.9307 51.6548 25.9307C52.6861 25.9307 53.5064 25.5049 54.1158 24.6533C54.3814 24.2861 54.5142 23.9268 54.5142 23.5752C54.5142 22.958 54.3267 22.4424 53.9517 22.0283C53.5767 21.6064 53.0845 21.3955 52.4752 21.3955C51.9127 21.3955 50.9869 21.6807 49.6978 22.251C48.4087 22.8135 47.483 23.0947 46.9205 23.0947C46.5064 23.0947 46.0064 22.8877 45.4205 22.4736C44.2017 21.6064 43.5923 20.7979 43.5923 20.0479C43.5923 19.6338 43.8228 19.2549 44.2837 18.9111C44.6978 18.5908 45.1236 18.4111 45.5611 18.3721L45.5845 18.2432L45.0103 17.4346C44.69 16.9814 44.5298 16.4932 44.5298 15.9697C44.5298 14.1729 45.9986 13.2744 48.9361 13.2744C49.022 13.2588 49.0806 13.1885 49.1119 13.0635V11.7627H43.0416V10.3564H55.0884V11.7627H50.9283V13.7314C50.9283 14.0986 51.0337 14.3252 51.2447 14.4111C51.3775 14.4111 51.5455 14.29 51.7486 14.0479L52.1939 13.5088C52.3111 13.3916 52.522 13.3135 52.8267 13.2744C53.3189 13.2744 53.7877 13.5557 54.233 14.1182C54.4361 14.376 54.5689 14.6338 54.6314 14.8916L53.4009 16.2979C53.3853 15.9385 53.3111 15.6104 53.1783 15.3135C52.9986 14.915 52.7642 14.7158 52.4752 14.7158C52.3658 14.7158 52.2369 14.7666 52.0884 14.8682C51.94 14.9697 51.8658 15.0713 51.8658 15.1729C51.8658 15.29 51.9166 15.4307 52.0181 15.5947C52.1353 15.79 52.2017 15.9111 52.2173 15.958C52.272 16.1377 52.2994 16.3643 52.2994 16.6377C52.2994 17.6924 51.8697 18.4072 51.0103 18.7822C50.44 19.0322 49.5416 19.1572 48.315 19.1572C46.7525 19.1572 45.6861 19.5049 45.1158 20.2002C44.8892 20.4736 44.7798 20.6963 44.7877 20.8682C44.7955 21.1025 44.9127 21.3096 45.1392 21.4893C45.3658 21.6611 45.6002 21.7471 45.8423 21.7471C46.2877 21.7471 47.1431 21.4385 48.4087 20.8213C49.9009 20.0947 51.1041 19.7236 52.0181 19.708C52.8541 19.6924 53.5572 20.0635 54.1275 20.8213C54.5884 21.4229 54.9205 22.1885 55.1236 23.1182C55.3033 23.9385 55.3931 24.5557 55.3931 24.9697ZM50.8345 15.5596C50.8345 14.6143 50.3306 14.1416 49.3228 14.1416C48.5103 14.1416 47.7408 14.4268 47.0142 14.9971C46.233 15.6064 45.8423 16.3057 45.8423 17.0947C45.8423 17.5244 46.0064 17.8916 46.3345 18.1963C46.6705 18.501 47.0533 18.6533 47.483 18.6533C47.9283 18.6611 48.4322 18.501 48.9947 18.1729C49.4947 17.8838 49.9087 17.5479 50.2369 17.165C50.6353 16.6963 50.8345 16.1611 50.8345 15.5596Z" fill="white"/>
<path d="M68.5059 11.7627H58.6973V19.2744C58.6973 19.7744 58.8028 20.29 59.0137 20.8213C59.4434 21.9072 60.1544 22.4502 61.1466 22.4502C62.4825 22.4502 63.4981 21.8916 64.1934 20.7744C64.7325 19.915 65.002 19.1064 65.002 18.3486V13.6846H67.3809V23.6689C67.1934 23.5596 66.8419 23.3916 66.3262 23.165L64.9786 22.5674V21.6299C64.0567 22.3018 63.2677 22.7275 62.6114 22.9072C62.213 23.0166 61.7403 23.0713 61.1934 23.0713C59.4591 23.0713 58.1036 22.3096 57.127 20.7861C56.6817 20.0908 56.4591 19.333 56.4591 18.5127V11.7627H55.0411V10.3564H68.5059V11.7627Z" fill="white"/>
<path d="M80.6227 11.7627H68.775V10.3564H80.6227V11.7627ZM79.65 15.9697C79.65 16.4307 79.3727 16.9502 78.818 17.5283C78.3492 18.0205 77.857 18.3877 77.3414 18.6299L75.5836 16.6377C76.1148 16.5908 76.6188 16.3955 77.0953 16.0518C77.6422 15.6611 77.9156 15.2158 77.9156 14.7158C77.9156 14.4502 77.7438 14.2236 77.4 14.0361C77.1031 13.8643 76.8102 13.7783 76.5211 13.7783C75.9195 13.7783 75.275 14.0674 74.5875 14.6455C73.1891 15.8174 72.4898 17.1143 72.4898 18.5361V23.5049L70.2398 22.333V13.6611H72.5133V14.5518C72.8492 14.2158 73.5445 13.8643 74.5992 13.4971C75.1148 13.3174 75.6461 13.2275 76.193 13.2275C77.3258 13.2275 78.2867 13.6611 79.0758 14.5283C79.4586 14.9502 79.65 15.4307 79.65 15.9697Z" fill="white"/>
<path d="M94.0284 11.7627H84.2198V19.2744C84.2198 19.7744 84.3253 20.29 84.5362 20.8213C84.9659 21.9072 85.6769 22.4502 86.6691 22.4502C88.005 22.4502 89.0206 21.8916 89.7159 20.7744C90.255 19.915 90.5245 19.1064 90.5245 18.3486V13.6846H92.9034V23.6689C92.7159 23.5596 92.3644 23.3916 91.8487 23.165L90.5011 22.5674V21.6299C89.5792 22.3018 88.7902 22.7275 88.1339 22.9072C87.7355 23.0166 87.2628 23.0713 86.7159 23.0713C84.9816 23.0713 83.6261 22.3096 82.6495 20.7861C82.2042 20.0908 81.9816 19.333 81.9816 18.5127V11.7627H80.5636V10.3564H94.0284V11.7627Z" fill="white"/>
<path d="M105.337 11.7627H97.6491V14.7861C98.11 14.5205 98.8639 14.1729 99.9108 13.7432C100.34 13.626 100.86 13.5674 101.469 13.5674C102.305 13.5674 103.051 13.7979 103.708 14.2588C104.442 14.7666 104.809 15.4229 104.809 16.2275C104.809 17.3135 104.188 18.1025 102.946 18.5947C102.43 18.7979 101.985 18.8994 101.61 18.8994L104.329 22.2041L102.84 23.2822L98.6569 18.3135L99.4303 16.708C99.8444 16.8252 100.278 16.8838 100.731 16.8838C101.395 16.8838 101.938 16.7275 102.36 16.415C102.837 16.0713 103.075 15.5791 103.075 14.9385C103.075 14.3135 102.63 14.001 101.739 14.001C101.114 14.001 100.45 14.3018 99.7467 14.9033C99.2467 15.333 98.7897 15.8525 98.3756 16.4619C97.8756 17.1963 97.6256 17.8252 97.6256 18.3486V23.2588L95.61 22.3564V11.7627H94.1217V10.3564H95.5397C95.5397 8.11426 95.1334 6.25098 94.3209 4.7666C94.1647 4.47754 93.8639 4.04395 93.4186 3.46582C92.9967 2.91113 92.7038 2.46973 92.5397 2.1416H94.9186C95.3795 2.57129 95.8561 3.27832 96.3483 4.2627C97.1842 5.93457 97.6022 7.96582 97.6022 10.3564H105.337V11.7627Z" fill="white"/>
<path d="M118.801 11.7627H108.992V19.2744C108.992 19.7744 109.098 20.29 109.309 20.8213C109.738 21.9072 110.449 22.4502 111.442 22.4502C112.777 22.4502 113.793 21.8916 114.488 20.7744C115.027 19.915 115.297 19.1064 115.297 18.3486V13.6846H117.676V23.6689C117.488 23.5596 117.137 23.3916 116.621 23.165L115.274 22.5674V21.6299C114.352 22.3018 113.563 22.7275 112.906 22.9072C112.508 23.0166 112.035 23.0713 111.488 23.0713C109.754 23.0713 108.399 22.3096 107.422 20.7861C106.977 20.0908 106.754 19.333 106.754 18.5127V11.7627H105.336V10.3564H118.801V11.7627Z" fill="white"/>
<path d="M124.367 11.7627H123.125V10.3564H124.367V11.7627ZM120.359 11.7627H119.023V10.3564H120.359V11.7627ZM122.738 8.93848V23.3643C122.66 23.3408 122.558 23.2979 122.433 23.2354L121.824 22.9189C121.129 22.5596 120.761 22.3799 120.722 22.3799V8.96191C120.722 8.1416 120.562 7.27051 120.242 6.34863C119.797 5.05957 119.105 3.8877 118.168 2.83301L117.429 2.00098H119.925C121.222 3.29785 122.074 4.8877 122.48 6.77051C122.652 7.56738 122.738 8.29004 122.738 8.93848Z" fill="white"/>
</svg>
