<svg width="102" height="29" viewBox="0 0 102 29" fill="none" xmlns="http://www.w3.org/2000/svg">
<path d="M1 28V3.72H0.4L0.8 -1.90735e-06H7.04L8.96 15.08L10.92 -1.90735e-06H17.04V28H13.24V6.24L10.28 24H7.68L4.8 6.72V28H1ZM25.2516 11.76C25.2516 11.6267 25.1849 11.56 25.0516 11.56H22.6516C22.5182 11.56 22.4516 11.6267 22.4516 11.76V24.24C22.4516 24.3733 22.5182 24.44 22.6516 24.44H25.0516C25.1849 24.44 25.2516 24.3867 25.2516 24.28V11.76ZM18.6516 24.44V11.56C18.6516 10.44 18.9982 9.54667 19.6916 8.88C20.3849 8.18667 21.2916 7.84 22.4116 7.84H25.2916C26.4116 7.84 27.3182 8.18667 28.0116 8.88C28.7049 9.54667 29.0516 10.44 29.0516 11.56V24.44C29.0516 25.56 28.7049 26.4667 28.0116 27.16C27.3182 27.8267 26.4116 28.16 25.2916 28.16H22.4116C21.2916 28.16 20.3849 27.8267 19.6916 27.16C18.9982 26.4667 18.6516 25.56 18.6516 24.44ZM29.8531 8H33.3731L35.6131 20.92L37.8531 8H41.3731L37.5331 28H33.6931L29.8531 8ZM46.3531 2.68L46.7531 6.4H42.9531V2.68H46.3531ZM46.7531 8V28H42.9531V11.72H42.3531L42.7531 8H46.7531ZM48.3391 24.44V11.56C48.3391 10.44 48.6857 9.54667 49.3791 8.88C50.0724 8.18667 50.9791 7.84 52.0991 7.84H54.5791C55.6991 7.84 56.6057 8.18667 57.2991 8.88C57.9924 9.54667 58.3391 10.44 58.3391 11.56V16.48H54.5391V11.76C54.5391 11.6267 54.4724 11.56 54.3391 11.56H52.3391C52.2057 11.56 52.1391 11.6267 52.1391 11.76V16.48H58.3391V20.2H52.1391V24.24C52.1391 24.3733 52.2057 24.44 52.3391 24.44H54.3391C54.4724 24.44 54.5391 24.3867 54.5391 24.28V22.08H58.3391V24.44C58.3391 25.56 57.9924 26.4667 57.2991 27.16C56.6057 27.8267 55.6991 28.16 54.5791 28.16H52.0991C50.9791 28.16 50.0724 27.8267 49.3791 27.16C48.6857 26.4667 48.3391 25.56 48.3391 24.44ZM71.1281 -1.90735e-06V12.08H73.4081V-1.90735e-06H77.2081V28H73.4081V15.8H71.1281V28H67.3281V3.72H66.7281L67.1281 -1.90735e-06H71.1281ZM85.4878 24.28V8H89.2878V24.28H89.8878L90.2878 28H85.4878V26.44L84.4878 28H83.4078C82.1811 28 81.1945 27.6533 80.4478 26.96C79.7278 26.24 79.3678 25.3467 79.3678 24.28V11.72H78.4078L78.8078 8H83.1678V24.08C83.1678 24.2133 83.2345 24.28 83.3678 24.28H85.4878ZM91.4381 28V3.72H90.4781L90.8781 -1.90735e-06H95.2381V9.56L96.2381 8H97.3181C98.5448 8 99.5181 8.34667 100.238 9.04C100.985 9.73333 101.358 10.6267 101.358 11.72V24.28C101.358 25.3467 100.985 26.24 100.238 26.96C99.5181 27.6533 98.5448 28 97.3181 28H97.1581C96.4381 28 95.7981 27.8267 95.2381 27.48V28H91.4381ZM97.3581 11.72H95.2381V24.28H97.3581C97.4915 24.28 97.5581 24.2133 97.5581 24.08V11.92C97.5581 11.7867 97.4915 11.72 97.3581 11.72Z" fill="#F3F3F3"/>
</svg>
