<svg width="54" height="15" viewBox="0 0 54 15" fill="none" xmlns="http://www.w3.org/2000/svg">
<path d="M3.88 14L0.88 1.12H3.02L5.2 10.78L7.64 2.68V1.12H9.42L12.16 10.78L14.38 1.12H16.5L13.52 14H11.38L8.8 4.98L6.06 14H3.88ZM20.0989 14.2C19.4989 14.2 18.9389 14.0933 18.4189 13.88C17.9122 13.6667 17.5056 13.3467 17.1989 12.92C16.8922 12.48 16.7389 11.94 16.7389 11.3C16.7389 10.3933 17.0456 9.66667 17.6589 9.12C18.2856 8.56 19.2456 8.28 20.5389 8.28H23.5789V7.86C23.5789 7.40667 23.5056 7.04667 23.3589 6.78C23.2256 6.51333 22.9722 6.32 22.5989 6.2C22.2389 6.08 21.7056 6.02 20.9989 6.02C19.8789 6.02 18.8322 6.18667 17.8589 6.52V4.9C18.2856 4.72667 18.8056 4.58667 19.4189 4.48C20.0322 4.37333 20.6922 4.32 21.3989 4.32C22.7856 4.32 23.8389 4.6 24.5589 5.16C25.2922 5.72 25.6589 6.63333 25.6589 7.9V14H23.7989L23.6589 13.04C23.2722 13.4133 22.7922 13.7 22.2189 13.9C21.6589 14.1 20.9522 14.2 20.0989 14.2ZM20.6789 12.64C21.3322 12.64 21.8989 12.5333 22.3789 12.32C22.8722 12.0933 23.2722 11.7933 23.5789 11.42V9.76H20.5789C19.9389 9.76 19.4722 9.88667 19.1789 10.14C18.8989 10.38 18.7589 10.7533 18.7589 11.26C18.7589 11.7533 18.9256 12.1067 19.2589 12.32C19.5922 12.5333 20.0656 12.64 20.6789 12.64ZM31.6964 14.2C30.6831 14.2 29.9231 13.9333 29.4164 13.4C28.9231 12.8533 28.6764 12.1133 28.6764 11.18V6.22H27.2764V4.52H28.6764V2.34L30.8364 1.68V4.52H33.3564L33.2164 6.22H30.8364V11.06C30.8364 11.6067 30.9631 11.9933 31.2164 12.22C31.4697 12.4333 31.8831 12.54 32.4564 12.54C32.8164 12.54 33.1964 12.4733 33.5964 12.34V13.88C33.0764 14.0933 32.4431 14.2 31.6964 14.2ZM39.9239 14.2C38.2572 14.2 36.9972 13.78 36.1439 12.94C35.2906 12.0867 34.8639 10.86 34.8639 9.26C34.8639 7.59333 35.3306 6.35333 36.2639 5.54C37.2106 4.72667 38.4706 4.32 40.0439 4.32C40.6972 4.32 41.2439 4.36667 41.6839 4.46C42.1372 4.55333 42.5706 4.7 42.9839 4.9V6.52C42.2906 6.17333 41.4506 6 40.4639 6C39.3706 6 38.5306 6.24667 37.9439 6.74C37.3572 7.22 37.0639 8.06 37.0639 9.26C37.0639 10.3933 37.3239 11.2267 37.8439 11.76C38.3639 12.28 39.2239 12.54 40.4239 12.54C41.3706 12.54 42.2306 12.36 43.0039 12V13.66C42.5639 13.8333 42.0906 13.9667 41.5839 14.06C41.0906 14.1533 40.5372 14.2 39.9239 14.2ZM44.7366 14V0.52H46.9166V5.44C47.3299 5.10667 47.8232 4.84 48.3966 4.64C48.9699 4.42667 49.6166 4.32 50.3366 4.32C51.5366 4.32 52.4232 4.60667 52.9966 5.18C53.5699 5.75333 53.8566 6.64667 53.8566 7.86V14H51.6966V7.96C51.6966 7.22667 51.5366 6.71333 51.2166 6.42C50.9099 6.12667 50.3699 5.98 49.5966 5.98C49.1166 5.98 48.6299 6.08667 48.1366 6.3C47.6432 6.5 47.2366 6.76667 46.9166 7.1V14H44.7366Z" fill="#F3F3F3"/>
</svg>
